<!--?xml version="1.0" encoding="utf-8"?-->
<!-- Generator: Adobe Illustrator 27.5.0, SVG Export Plug-In . SVG Version: 6.00 Build 0)  -->
<svg version="1.1" id="PRINT" xmlns="http://www.w3.org/2000/svg" xmlns:xlink="http://www.w3.org/1999/xlink" x="0px" y="0px" viewBox="0 0 595.276 841.89" style="enable-background:new 0 0 595.276 841.89;" xml:space="preserve" width="600" height="600">
<g>
	<defs>
		<rect id="SVGID_1_" x="-8.504" y="-8.504" width="612.283" height="858.897"></rect>
	</defs>
	<clipPath id="SVGID_00000075873073270069350890000017043001376110136760_">
		<use xlink:href="#SVGID_1_" style="overflow:visible;"></use>
	</clipPath>
	
		<rect x="-8.504" y="-8.504" style="clip-path:url(#SVGID_00000075873073270069350890000017043001376110136760_);fill:#FFFFFF;" width="612.283" height="858.897"></rect>
	<path style="opacity:0.24;clip-path:url(#SVGID_00000075873073270069350890000017043001376110136760_);fill:#C170FF;" d="
		M616.506,391.702V113.266c0.721,0,0.878,1.145,1.599,1.145c-7.564,43.322-38.561,78.664-71.358,107.962
		c-34.722,31.018-73.557,58.452-117.505,73.824c-43.949,15.371-93.583,17.834-136.589-0.005
		c-25.862-10.728-48.332-28.206-73.307-40.863c-46.406-23.517-100.928-29.539-151.983-19.543
		c-51.055,9.996-98.56,35.553-137.084,70.516c10.493,13.846,14.761,32.66,21.962,48.47c4.717,10.357,9.434,20.714,14.151,31.07
		c61.948-36.853,127.779-45.888,199.585-52.175c20.424-1.788,41.126-3.33,61.322,0.2c22.767,3.979,43.951,14.25,63.937,25.858
		c43.933,25.517,84.658,58.448,133.483,72.497c56.401,16.229,120.223,4.05,166.685-31.809c7.725-5.962,15.553-13.666,15.895-23.419"></path>
	<g style="clip-path:url(#SVGID_00000075873073270069350890000017043001376110136760_);">
		<text transform="matrix(1 0 0 1 375.4763 146.2404)" x="-25.256701340675363" y="29.46615098953231" style="font-size: 26pt; font-weight: bold; font-style: normal; font-family: Arial;">Khayelitsha</text>
	</g>
	<g style="clip-path:url(#SVGID_00000075873073270069350890000017043001376110136760_);">
		<text transform="matrix(1 0 0 1 69.4616 477.0716)">OFFERING OUR SERVICES</text>
		<g>
			<text transform="matrix(1 0 0 1 69.4616 526.4738)"><tspan x="0" y="0" style="fill:#4C90FF; font-family:'Poppins-Black'; font-size:17px;">Our expert team</tspan><tspan x="0" y="19" style="fill:#4C90FF; font-family:'Poppins-Black'; font-size:17px;">has years of experience</tspan><tspan x="0" y="38" style="fill:#4C90FF; font-family:'Poppins-Black'; font-size:17px;">in business and strategy.</tspan></text>
		</g>
		<g>
			<rect x="69.462" y="576.677" style="fill:none;" width="209.447" height="42.818"></rect>
			<text transform="matrix(1 0 0 1 69.4616 583.3375)"><tspan x="0" y="0" style="fill:#212A3A; font-family:'Poppins-Regular'; font-size:9px;">Lorem ipsum dolor sit amet, consectetuer </tspan><tspan x="0" y="10.8" style="fill:#212A3A; font-family:'Poppins-Regular'; font-size:9px;">adipiscing elit, sed diam nonummy nibh </tspan><tspan x="0" y="21.6" style="fill:#212A3A; font-family:'Poppins-Regular'; font-size:9px;">euismod tincidunt ut laoreet dolore </tspan><tspan x="0" y="32.399" style="fill:#212A3A; font-family:'Poppins-Regular'; font-size:9px;">magna aliquam erat. </tspan></text>
		</g>
	</g>
	<g style="clip-path:url(#SVGID_00000075873073270069350890000017043001376110136760_);">
		<g>
			<g>
				<path style="fill:#212A3A;" d="M82.695,79.567H62.753V59.624h19.942V79.567z M65.13,77.189h15.188V62.002H65.13V77.189z"></path>
			</g>
			<g>
				<path style="fill:#212A3A;" d="M91.627,87.952H71.685V68.009h19.943V87.952z M74.062,85.574H89.25V70.387H74.062V85.574z"></path>
			</g>
		</g>
		<g>
			<text transform="matrix(1 0 0 1 62.7531 108.1368)" style="font-weight: bold; font-size: 25pt;"><tspan x="0" y="0" style="fill:#212A3A; font-family:'Poppins-Black'; font-size:17.1249px;">company</tspan><tspan x="0" y="14" style="fill:#212A3A; font-family:'Poppins-Black'; font-size:17.1249px;">name</tspan></text>
		</g>
	</g>
	<g style="clip-path:url(#SVGID_00000075873073270069350890000017043001376110136760_);">
		<text transform="matrix(1 0 0 1 62.753 140.7672)"><tspan x="0" y="0" style="fill:#393A45; font-family:'Poppins-Regular'; font-size:9px;">+00 1234 567 89</tspan><tspan x="0" y="10.8" style="fill:#393A45; font-family:'Poppins-Regular'; font-size:9px;">yourname@email.com</tspan><tspan x="0" y="21.6" style="fill:#393A45; font-family:'Poppins-Regular'; font-size:9px;">www.company.com</tspan></text>
	</g>
	
		<rect x="-8.504" y="664.353" style="clip-path:url(#SVGID_00000075873073270069350890000017043001376110136760_);fill:#212A3A;" width="612.283" height="186.041"></rect>
	<g style="clip-path:url(#SVGID_00000075873073270069350890000017043001376110136760_);">
		<g>
			<path style="fill:#4C90FF;" d="M83.524,734.255v-4.38h-2.726c-0.23-0.996-0.615-1.932-1.132-2.78l1.943-1.943l-3.097-3.097
				l-1.928,1.927c-0.843-0.526-1.774-0.923-2.766-1.164v-2.749h-4.38v2.726c-0.996,0.23-1.932,0.615-2.78,1.132l-1.943-1.943
				l-3.097,3.097l1.927,1.927c-0.526,0.843-0.923,1.774-1.164,2.767h-2.748v4.38h2.726c0.23,0.996,0.615,1.932,1.132,2.78
				l-1.943,1.943l3.097,3.097l1.928-1.928c0.842,0.526,1.774,0.923,2.766,1.164v2.749h4.38v-2.726
				c0.996-0.23,1.932-0.615,2.78-1.132l1.943,1.943l3.097-3.097l-1.927-1.928c0.526-0.843,0.923-1.774,1.164-2.766H83.524z
				 M71.578,736.226c-2.325,0-4.21-1.885-4.21-4.21c0-2.325,1.885-4.21,4.21-4.21c2.325,0,4.21,1.885,4.21,4.21
				C75.788,734.341,73.903,736.226,71.578,736.226z"></path>
			<g>
				<text transform="matrix(1 0 0 1 90.4633 730.5807)"><tspan x="0" y="0" style="fill:#FFFFFF; font-family:'Poppins-Black'; font-size:16px;">business</tspan><tspan x="0" y="11.929" style="fill:#FFFFFF; font-family:'Poppins-Black'; font-size:16px;">solution</tspan></text>
			</g>
			<g>
				<rect x="62.173" y="758.265" style="fill:none;" width="133.942" height="33.744"></rect>
				<text transform="matrix(1 0 0 1 62.1733 764.9264)"><tspan x="0" y="0" style="fill:#FFFFFF; font-family:'Poppins-Regular'; font-size:9px;">Lorem ipsum dolor sit </tspan><tspan x="0" y="10.8" style="fill:#FFFFFF; font-family:'Poppins-Regular'; font-size:9px;">amet, consectetuer </tspan><tspan x="0" y="21.6" style="fill:#FFFFFF; font-family:'Poppins-Regular'; font-size:9px;">adipiscing elit, sed diam.</tspan></text>
			</g>
		</g>
		<g>
			<path style="fill:#4C90FF;" d="M252.449,734.255v-4.38h-2.726c-0.23-0.996-0.615-1.932-1.132-2.78l1.942-1.943l-3.097-3.097
				l-1.928,1.927c-0.843-0.526-1.774-0.923-2.766-1.164v-2.749h-4.38v2.726c-0.996,0.23-1.932,0.615-2.78,1.132l-1.943-1.943
				l-3.097,3.097l1.928,1.927c-0.526,0.843-0.923,1.774-1.164,2.767h-2.748v4.38h2.726c0.23,0.996,0.616,1.932,1.133,2.78
				l-1.943,1.943l3.097,3.097l1.928-1.928c0.842,0.526,1.774,0.923,2.766,1.164v2.749h4.38v-2.726
				c0.996-0.23,1.932-0.615,2.78-1.132l1.942,1.943l3.098-3.097l-1.928-1.928c0.526-0.843,0.923-1.774,1.164-2.766H252.449z
				 M240.504,736.226c-2.325,0-4.21-1.885-4.21-4.21c0-2.325,1.885-4.21,4.21-4.21c2.325,0,4.21,1.885,4.21,4.21
				C244.713,734.341,242.828,736.226,240.504,736.226z"></path>
			<g>
				<text transform="matrix(1 0 0 1 259.3886 730.5807)"><tspan x="0" y="0" style="fill:#FFFFFF; font-family:'Poppins-Black'; font-size:16px;">business</tspan><tspan x="0" y="11.929" style="fill:#FFFFFF; font-family:'Poppins-Black'; font-size:16px;">solution</tspan></text>
			</g>
			<g>
				<rect x="231.098" y="758.265" style="fill:none;" width="133.942" height="33.744"></rect>
				<text transform="matrix(1 0 0 1 231.0986 764.9264)"><tspan x="0" y="0" style="fill:#FFFFFF; font-family:'Poppins-Regular'; font-size:9px;">Lorem ipsum dolor sit </tspan><tspan x="0" y="10.8" style="fill:#FFFFFF; font-family:'Poppins-Regular'; font-size:9px;">amet, consectetuer </tspan><tspan x="0" y="21.6" style="fill:#FFFFFF; font-family:'Poppins-Regular'; font-size:9px;">adipiscing elit, sed diam.</tspan></text>
			</g>
		</g>
		<g>
			<path style="fill:#4C90FF;" d="M423.053,734.255v-4.38h-2.726c-0.23-0.996-0.615-1.932-1.132-2.78l1.942-1.943l-3.097-3.097
				l-1.928,1.927c-0.843-0.526-1.774-0.923-2.766-1.164v-2.749h-4.38v2.726c-0.996,0.23-1.932,0.615-2.78,1.132l-1.943-1.943
				l-3.097,3.097l1.928,1.927c-0.526,0.843-0.923,1.774-1.164,2.767h-2.748v4.38h2.726c0.23,0.996,0.615,1.932,1.132,2.78
				l-1.943,1.943l3.097,3.097l1.928-1.928c0.842,0.526,1.774,0.923,2.766,1.164v2.749h4.38v-2.726
				c0.996-0.23,1.932-0.615,2.78-1.132l1.943,1.943l3.097-3.097l-1.927-1.928c0.526-0.843,0.923-1.774,1.164-2.766H423.053z
				 M411.107,736.226c-2.325,0-4.21-1.885-4.21-4.21c0-2.325,1.885-4.21,4.21-4.21c2.325,0,4.21,1.885,4.21,4.21
				C415.316,734.341,413.432,736.226,411.107,736.226z"></path>
			<g>
				<text transform="matrix(1 0 0 1 429.9922 730.5807)"><tspan x="0" y="0" style="fill:#FFFFFF; font-family:'Poppins-Black'; font-size:16px;">business</tspan><tspan x="0" y="11.929" style="fill:#FFFFFF; font-family:'Poppins-Black'; font-size:16px;">solution</tspan></text>
			</g>
			<g>
				<rect x="401.701" y="758.265" style="fill:none;" width="133.942" height="33.744"></rect>
				<text transform="matrix(1 0 0 1 401.7021 764.9264)"><tspan x="0" y="0" style="fill:#FFFFFF; font-family:'Poppins-Regular'; font-size:9px;">Lorem ipsum dolor sit </tspan><tspan x="0" y="10.8" style="fill:#FFFFFF; font-family:'Poppins-Regular'; font-size:9px;">amet, consectetuer </tspan><tspan x="0" y="21.6" style="fill:#FFFFFF; font-family:'Poppins-Regular'; font-size:9px;">adipiscing elit, sed diam.</tspan></text>
			</g>
		</g>
		<line style="fill:none;stroke:#FFFFFF;stroke-miterlimit:10;" x1="208.369" y1="710.005" x2="208.369" y2="796.705"></line>
		<line style="fill:none;stroke:#FFFFFF;stroke-miterlimit:10;" x1="381.769" y1="708.886" x2="381.769" y2="795.586"></line>
	</g>
	<g style="clip-path:url(#SVGID_00000075873073270069350890000017043001376110136760_);">
		
			<linearGradient id="SVGID_00000138569500751001931080000014520760336922760087_" gradientUnits="userSpaceOnUse" x1="-47.3668" y1="355.5224" x2="621.3542" y2="355.5224">
			<stop offset="0" style="stop-color:#DC5AFF"></stop>
			<stop offset="0.1862" style="stop-color:#D85CFF"></stop>
			<stop offset="0.3542" style="stop-color:#CD60FF"></stop>
			<stop offset="0.5153" style="stop-color:#BB68FF"></stop>
			<stop offset="0.672" style="stop-color:#A174FF"></stop>
			<stop offset="0.8256" style="stop-color:#8082FF"></stop>
			<stop offset="0.9749" style="stop-color:#5894FF"></stop>
			<stop offset="1" style="stop-color:#5097FF"></stop>
		</linearGradient>
		<path style="fill:url(#SVGID_00000138569500751001931080000014520760336922760087_);" d="M59.59,317.771
			c46.221-14.529,97.785-11.297,141.829,8.89c56.08,25.704,99.333,77.105,158.844,93.356c79.026,21.579,161.27,4.268,234.324-29
			c0.767-0.349,1.533-0.7,2.299-1.053c6.418-2.958,12.758-6.084,19.006-9.387c1.84-29.21,5.104-58.723,5.462-87.955
			c-7.781,13.673-13.918,25.335-27.527,34.944c-13.771,9.724-29.873,15.449-44.77,22.871c-16.297,8.119-35.151,13.108-52.787,17.309
			c-36.061,8.59-73.394,11.26-110.36,9.034c-35.93-2.164-71.391-8.257-104.236-23.235c-43.2-19.7-80.439-52.384-126.043-65.596
			c-35.571-10.305-74.238-7.799-109.318,4.069s-66.696,32.769-93.679,58.134l8.941,36.48
			C-13.752,354.463,20.89,329.936,59.59,317.771z"></path>
		<path style="fill:#212A3A;" d="M492.564,423.953c-52.039,8.584-94.206,6.466-132.3-3.936
			c-59.511-16.25-102.764-67.652-158.844-93.356c-44.044-20.188-95.609-23.42-141.829-8.89
			c-38.701,12.165-73.342,36.692-98.017,68.861l24.383,99.49c22.42-33.662,51.122-63.124,84.187-86.415
			c32.557-22.934,70.787-40.194,110.606-39.647c36.536,0.502,71.327,15.885,102.48,34.98c31.152,19.095,59.807,42.118,91.455,60.381
			c59.931,34.583,130.105,51.153,199.176,47.031c13.967-0.834,28.499-2.709,40.095-10.539l1.936-111.336
			C572.084,399.167,539.815,416.158,492.564,423.953z"></path>
	</g>
	<g style="clip-path:url(#SVGID_00000075873073270069350890000017043001376110136760_);">
		
			<linearGradient id="SVGID_00000090268068757365102830000013876371510176416914_" gradientUnits="userSpaceOnUse" x1="520.3528" y1="502.9827" x2="385.4807" y2="580.8512">
			<stop offset="0" style="stop-color:#DC5AFF"></stop>
			<stop offset="0.1954" style="stop-color:#BE67FF"></stop>
			<stop offset="0.7468" style="stop-color:#6F89FF"></stop>
			<stop offset="1" style="stop-color:#5097FF"></stop>
		</linearGradient>
		<circle style="fill:url(#SVGID_00000090268068757365102830000013876371510176416914_);" cx="452.917" cy="541.917" r="77.855"></circle>
		<g>
			<text transform="matrix(1 0 0 1 398.2642 534.2921)" style="fill:#393A45; font-family:'Poppins-Black'; font-size:41.7487px;">“</text>
			<text transform="matrix(1 0 0 1 484.5815 586.8985)" style="fill:#393A45; font-family:'Poppins-Black'; font-size:41.7487px;">”</text>
			<g>
				<rect x="419.671" y="509.575" style="fill:none;" width="87.899" height="66.938"></rect>
				<text transform="matrix(1 0 0 1 419.6714 523.9434)"><tspan x="0" y="0" style="fill:#FFFFFF; font-family:'Poppins-Black'; font-size:19.4152px;">Lorem </tspan><tspan x="0" y="16.791" style="fill:#FFFFFF; font-family:'Poppins-Black'; font-size:19.4152px;">ipsum </tspan><tspan x="0" y="33.583" style="fill:#FFFFFF; font-family:'Poppins-Black'; font-size:19.4152px;">dolor sit </tspan><tspan x="0" y="50.374" style="fill:#FFFFFF; font-family:'Poppins-Black'; font-size:19.4152px;">amet.</tspan></text>
			</g>
		</g>
	</g>
	<path style="clip-path:url(#SVGID_00000075873073270069350890000017043001376110136760_);fill:#212A3A;" d="M82.695-17.261
		l17.921,0.155C94.658-17.681,88.658-17.75,82.695-17.261z"></path>
	<path style="clip-path:url(#SVGID_00000075873073270069350890000017043001376110136760_);fill:#212A3A;" d="M619.995-13.005
		c-24.63-10.908-52.887-11.433-79.299-6.142c-7.576,1.518-15.065,3.424-22.469,5.658L620.91-12.6
		C620.605-12.735,620.3-12.87,619.995-13.005z"></path>
	
		<linearGradient id="SVGID_00000099642305313260955140000016774228870716750776_" gradientUnits="userSpaceOnUse" x1="100.6166" y1="42.9232" x2="518.2271" y2="42.9232">
		<stop offset="0" style="stop-color:#DC5AFF"></stop>
		<stop offset="0.3296" style="stop-color:#A373FF"></stop>
		<stop offset="0.6319" style="stop-color:#7686FF"></stop>
		<stop offset="0.8647" style="stop-color:#5A92FF"></stop>
		<stop offset="1" style="stop-color:#5097FF"></stop>
	</linearGradient>
	
		<path style="clip-path:url(#SVGID_00000075873073270069350890000017043001376110136760_);fill:url(#SVGID_00000099642305313260955140000016774228870716750776_);" d="
		M349.384-14.951c-15.01,10.371-29.007,21.702-43.942,32.6c-21.798,15.906-53.124,29.096-76.685,9.729
		c-15.754-12.95-25.971-32.74-43.102-43.747l-85.038-0.736c23.041,2.225,45.434,12.147,62.405,27.825
		c15.855,14.646,28.063,37.126,40.962,54.407c14.262,19.108,35.068,31.89,58.572,36.153c44.557,8.08,81.15-14.455,115.785-38.767
		c42.668-29.95,89.282-60.735,139.886-76.001L349.384-14.951z"></path>
	
		<path style="clip-path:url(#SVGID_00000075873073270069350890000017043001376110136760_);fill:none;stroke:#212A3A;stroke-miterlimit:10;" d="
		M-47.644,327.641c68.843-60.62,166.061-88.244,249.789-42.229c26.024,14.302,50.161,31.96,76.786,45.108
		c90.963,44.92,199.913,26.924,286.382-20.13c31.352-17.061,60.157-38.867,84.697-64.813"></path>
	
		<path style="clip-path:url(#SVGID_00000075873073270069350890000017043001376110136760_);fill:none;stroke:#212A3A;stroke-miterlimit:10;" d="
		M48.391-15.737c22.507-12.09,51.291-5.567,72.205,9.108c31.359,22.003,46.595,57.305,70.491,85.654
		c17.925,21.265,48.233,42.456,76.723,44.291c34.001,2.19,66.579-13.595,94.531-31.37C437.943,43.87,529.164-17.486,622.338,22.323"></path>
</g>
</svg>
