<svg xmlns="http://www.w3.org/2000/svg" xmlns:xlink="http://www.w3.org/1999/xlink" width="600" zoomAndPan="magnify" viewBox="0 0 1190.25 1683.749945" height="600" preserveAspectRatio="xMidYMid meet" version="1.0"><defs><g></g><clipPath id="7f887e52b2"><path d="M 0 0.40625 L 1189.5 0.40625 L 1189.5 1683.09375 L 0 1683.09375 Z M 0 0.40625 " clip-rule="nonzero"></path></clipPath></defs><g clip-path="url(#7f887e52b2)"><path fill="#ffffff" d="M 0 0.40625 L 1189.5 0.40625 L 1189.5 1683.09375 L 0 1683.09375 Z M 0 0.40625 " fill-opacity="1" fill-rule="nonzero"></path><path fill="#ffffff" d="M145.92499742507766 398.8937400698667L1335.424997425077 398.8937400698667L1335.424997425077 2081.5812400698665L145.92499742507766 2081.5812400698665ZM145.92499742507766 398.8937400698667 " fill-opacity="1" fill-rule="nonzero"></path></g><g fill="#000000" fill-opacity="1"><g transform="translate(118.991852, 250.652595)"><g><path d="M 76.625 -95.59375 L 76.625 -79.703125 L 49.03125 -79.703125 L 49.03125 0 L 30.203125 0 L 30.203125 -79.703125 L 2.609375 -79.703125 L 2.609375 -95.59375 Z M 76.625 -95.59375 "></path></g></g></g><g fill="#000000" fill-opacity="1"><g transform="translate(198.238072, 250.652595)"><g><path d="M 71.265625 -31.96875 L 24.90625 -31.96875 C 25.4375 -25.695312 27.222656 -21.128906 30.265625 -18.265625 C 33.316406 -15.410156 37.484375 -13.984375 42.765625 -13.984375 C 46.898438 -13.984375 50.253906 -14.757812 52.828125 -16.3125 C 55.398438 -17.863281 57.472656 -20.207031 59.046875 -23.34375 L 60.421875 -23.34375 L 72.453125 -15.625 C 70.097656 -10.570312 66.539062 -6.472656 61.78125 -3.328125 C 57.03125 -0.191406 50.691406 1.375 42.765625 1.375 C 35.304688 1.375 28.863281 -0.0390625 23.4375 -2.875 C 18.007812 -5.707031 13.820312 -9.925781 10.875 -15.53125 C 7.9375 -21.132812 6.46875 -27.96875 6.46875 -36.03125 C 6.46875 -44.21875 8.015625 -51.125 11.109375 -56.75 C 14.203125 -62.375 18.382812 -66.566406 23.65625 -69.328125 C 28.9375 -72.097656 34.867188 -73.484375 41.453125 -73.484375 C 51.648438 -73.484375 59.460938 -70.78125 64.890625 -65.375 C 70.316406 -59.976562 73.03125 -52.046875 73.03125 -41.578125 C 73.03125 -37.785156 72.898438 -34.84375 72.640625 -32.75 Z M 55.703125 -43.671875 C 55.535156 -49.171875 54.257812 -53.171875 51.875 -55.671875 C 49.5 -58.179688 46.023438 -59.4375 41.453125 -59.4375 C 32.296875 -59.4375 26.910156 -54.179688 25.296875 -43.671875 Z M 55.703125 -43.671875 "></path></g></g></g><g fill="#000000" fill-opacity="1"><g transform="translate(276.634291, 250.652595)"><g><path d="M 33.734375 1.375 C 28.804688 1.375 24.296875 0.796875 20.203125 -0.359375 C 16.109375 -1.515625 12.609375 -3.101562 9.703125 -5.125 C 6.804688 -7.15625 4.660156 -9.476562 3.265625 -12.09375 L 13.34375 -22.953125 L 14.71875 -22.953125 C 17.113281 -19.722656 19.941406 -17.300781 23.203125 -15.6875 C 26.472656 -14.070312 30.03125 -13.265625 33.875 -13.265625 C 37.40625 -13.265625 40.0625 -13.894531 41.84375 -15.15625 C 43.632812 -16.425781 44.53125 -18.238281 44.53125 -20.59375 C 44.53125 -22.425781 43.882812 -23.960938 42.59375 -25.203125 C 41.3125 -26.441406 39.234375 -27.410156 36.359375 -28.109375 L 26.8125 -30.40625 C 19.65625 -32.101562 14.429688 -34.707031 11.140625 -38.21875 C 7.859375 -41.726562 6.21875 -46.1875 6.21875 -51.59375 C 6.21875 -56.082031 7.359375 -59.984375 9.640625 -63.296875 C 11.929688 -66.609375 15.15625 -69.132812 19.3125 -70.875 C 23.476562 -72.613281 28.332031 -73.484375 33.875 -73.484375 C 40.363281 -73.484375 45.742188 -72.546875 50.015625 -70.671875 C 54.285156 -68.804688 57.617188 -66.300781 60.015625 -63.15625 L 50.34375 -52.703125 L 49.03125 -52.703125 C 47.03125 -54.960938 44.773438 -56.613281 42.265625 -57.65625 C 39.765625 -58.707031 36.96875 -59.234375 33.875 -59.234375 C 26.71875 -59.234375 23.140625 -57.007812 23.140625 -52.5625 C 23.140625 -50.6875 23.804688 -49.160156 25.140625 -47.984375 C 26.472656 -46.804688 28.816406 -45.847656 32.171875 -45.109375 L 41.0625 -43.15625 C 48.382812 -41.582031 53.734375 -39.0625 57.109375 -35.59375 C 60.492188 -32.132812 62.1875 -27.484375 62.1875 -21.640625 C 62.1875 -17.066406 61.050781 -13.035156 58.78125 -9.546875 C 56.507812 -6.054688 53.238281 -3.363281 48.96875 -1.46875 C 44.695312 0.425781 39.617188 1.375 33.734375 1.375 Z M 33.734375 1.375 "></path></g></g></g><g fill="#000000" fill-opacity="1"><g transform="translate(343.130501, 250.652595)"><g><path d="M 49.75 -17.203125 L 54.46875 -3.796875 C 52.5 -2.179688 50.03125 -0.914062 47.0625 0 C 44.101562 0.914062 40.75 1.375 37 1.375 C 29.195312 1.375 23.269531 -0.75 19.21875 -5 C 15.164062 -9.25 13.140625 -15.425781 13.140625 -23.53125 L 13.140625 -57.796875 L 2.15625 -57.796875 L 2.15625 -72.1875 L 13.140625 -72.1875 L 13.140625 -86.234375 L 31.25 -89.1875 L 31.25 -72.1875 L 51.71875 -72.1875 L 51.71875 -57.796875 L 31.25 -57.796875 L 31.25 -24.84375 C 31.25 -21.269531 31.988281 -18.664062 33.46875 -17.03125 C 34.957031 -15.394531 37.117188 -14.578125 39.953125 -14.578125 C 43.171875 -14.578125 45.984375 -15.453125 48.390625 -17.203125 Z M 49.75 -17.203125 "></path></g></g></g><g fill="#000000" fill-opacity="1"><g transform="translate(399.165152, 250.652595)"><g><path d="M 19.421875 -80.75 C 16.148438 -80.75 13.488281 -81.738281 11.4375 -83.71875 C 9.394531 -85.707031 8.375 -88.269531 8.375 -91.40625 C 8.375 -94.5 9.394531 -97.035156 11.4375 -99.015625 C 13.488281 -101.003906 16.148438 -102 19.421875 -102 C 21.597656 -102 23.535156 -101.539062 25.234375 -100.625 C 26.929688 -99.707031 28.25 -98.453125 29.1875 -96.859375 C 30.125 -95.273438 30.59375 -93.457031 30.59375 -91.40625 C 30.59375 -89.351562 30.125 -87.519531 29.1875 -85.90625 C 28.25 -84.300781 26.929688 -83.039062 25.234375 -82.125 C 23.535156 -81.207031 21.597656 -80.75 19.421875 -80.75 Z M 10.390625 0 L 10.390625 -72.125 L 28.5 -72.125 L 28.5 0 Z M 10.390625 0 "></path></g></g></g><g fill="#000000" fill-opacity="1"><g transform="translate(438.003645, 250.652595)"><g><path d="M 10.390625 0 L 10.390625 -72.125 L 27.78125 -72.125 L 27.78125 -61.53125 L 29.15625 -61.203125 C 33.644531 -69.390625 40.925781 -73.484375 51 -73.484375 C 59.320312 -73.484375 65.429688 -71.21875 69.328125 -66.6875 C 73.234375 -62.15625 75.1875 -55.550781 75.1875 -46.875 L 75.1875 0 L 57.078125 0 L 57.078125 -44.65625 C 57.078125 -49.445312 56.117188 -52.898438 54.203125 -55.015625 C 52.285156 -57.128906 49.210938 -58.1875 44.984375 -58.1875 C 39.796875 -58.1875 35.75 -56.507812 32.84375 -53.15625 C 29.945312 -49.800781 28.5 -44.523438 28.5 -37.328125 L 28.5 0 Z M 10.390625 0 "></path></g></g></g><g fill="#000000" fill-opacity="1"><g transform="translate(522.480662, 250.652595)"><g><path d="M 37.40625 30.59375 C 25.5 30.59375 16.710938 28.847656 11.046875 25.359375 C 5.378906 21.878906 2.546875 17.019531 2.546875 10.78125 C 2.546875 6.988281 3.753906 3.882812 6.171875 1.46875 C 8.597656 -0.945312 12.078125 -2.570312 16.609375 -3.40625 L 16.609375 -4.765625 C 14.171875 -6.253906 12.414062 -7.898438 11.34375 -9.703125 C 10.28125 -11.515625 9.75 -13.617188 9.75 -16.015625 C 9.75 -21.816406 13.515625 -25.71875 21.046875 -27.71875 L 21.046875 -29.09375 C 17.171875 -31.320312 14.25 -34.078125 12.28125 -37.359375 C 10.320312 -40.648438 9.34375 -44.628906 9.34375 -49.296875 C 9.34375 -54.085938 10.441406 -58.300781 12.640625 -61.9375 C 14.847656 -65.582031 18.078125 -68.414062 22.328125 -70.4375 C 26.578125 -72.46875 31.664062 -73.484375 37.59375 -73.484375 C 43.613281 -73.484375 48.410156 -72.441406 51.984375 -70.359375 C 54.203125 -73.578125 55.488281 -77.300781 55.84375 -81.53125 L 57.203125 -82.390625 L 70.21875 -79.1875 C 69.832031 -75.738281 68.832031 -72.847656 67.21875 -70.515625 C 65.601562 -68.179688 63.097656 -66.097656 59.703125 -64.265625 L 59.703125 -62.828125 C 63.753906 -59.253906 65.78125 -54.265625 65.78125 -47.859375 C 65.78125 -43.410156 64.664062 -39.421875 62.4375 -35.890625 C 60.21875 -32.359375 56.984375 -29.566406 52.734375 -27.515625 C 48.484375 -25.472656 43.4375 -24.453125 37.59375 -24.453125 L 34.84375 -24.515625 C 33.101562 -24.609375 31.882812 -24.65625 31.1875 -24.65625 C 29.53125 -24.65625 28.234375 -24.207031 27.296875 -23.3125 C 26.359375 -22.414062 25.890625 -21.269531 25.890625 -19.875 C 25.890625 -18.351562 26.5 -17.164062 27.71875 -16.3125 C 28.9375 -15.457031 30.722656 -14.988281 33.078125 -14.90625 L 49.234375 -14.3125 C 65.191406 -13.832031 73.171875 -6.96875 73.171875 6.28125 C 73.171875 10.9375 71.976562 15.082031 69.59375 18.71875 C 67.21875 22.363281 63.367188 25.253906 58.046875 27.390625 C 52.734375 29.523438 45.851562 30.59375 37.40625 30.59375 Z M 37.59375 -37.140625 C 41.082031 -37.140625 43.804688 -38.160156 45.765625 -40.203125 C 47.734375 -42.253906 48.71875 -45.175781 48.71875 -48.96875 C 48.71875 -52.757812 47.734375 -55.664062 45.765625 -57.6875 C 43.804688 -59.71875 41.082031 -60.734375 37.59375 -60.734375 C 34.0625 -60.734375 31.335938 -59.71875 29.421875 -57.6875 C 27.503906 -55.664062 26.546875 -52.757812 26.546875 -48.96875 C 26.546875 -45.132812 27.503906 -42.203125 29.421875 -40.171875 C 31.335938 -38.148438 34.0625 -37.140625 37.59375 -37.140625 Z M 37.40625 17.453125 C 43.59375 17.453125 48.09375 16.582031 50.90625 14.84375 C 53.71875 13.101562 55.125 10.835938 55.125 8.046875 C 55.125 5.773438 54.398438 4.101562 52.953125 3.03125 C 51.515625 1.96875 49.226562 1.394531 46.09375 1.3125 L 31.84375 0.65625 C 31.363281 0.65625 30.914062 0.628906 30.5 0.578125 C 30.082031 0.535156 29.679688 0.515625 29.296875 0.515625 C 26.242188 0.515625 23.921875 1.171875 22.328125 2.484375 C 20.734375 3.796875 19.9375 5.601562 19.9375 7.90625 C 19.9375 10.957031 21.394531 13.3125 24.3125 14.96875 C 27.238281 16.625 31.601562 17.453125 37.40625 17.453125 Z M 37.40625 17.453125 "></path></g></g></g><g fill="#000000" fill-opacity="1"><g transform="translate(597.476889, 250.652595)"><g></g></g></g><g fill="#000000" fill-opacity="1"><g transform="translate(629.057696, 250.652595)"><g><path d="M 49.359375 -95.59375 C 56.203125 -95.59375 62.050781 -94.335938 66.90625 -91.828125 C 71.769531 -89.328125 75.445312 -85.816406 77.9375 -81.296875 C 80.425781 -76.785156 81.671875 -71.546875 81.671875 -65.578125 C 81.671875 -59.609375 80.425781 -54.378906 77.9375 -49.890625 C 75.445312 -45.398438 71.769531 -41.898438 66.90625 -39.390625 C 62.050781 -36.890625 56.203125 -35.640625 49.359375 -35.640625 L 31.3125 -35.640625 L 31.3125 0 L 12.421875 0 L 12.421875 -95.59375 Z M 46.875 -50.609375 C 57.382812 -50.609375 62.640625 -55.597656 62.640625 -65.578125 C 62.640625 -75.609375 57.382812 -80.625 46.875 -80.625 L 31.3125 -80.625 L 31.3125 -50.609375 Z M 46.875 -50.609375 "></path></g></g></g><g fill="#000000" fill-opacity="1"><g transform="translate(716.411615, 250.652595)"><g><path d="M53.131249845027696 15.406250476836249C46.068749845027696 15.406250476836249 39.865624845027696 13.960937976836249 34.521874845027696 11.062500476836249C29.185937845027695 8.156250476836249 25.045311845027697 3.9062504768362487 22.099999845027696 -1.6874995231637513C19.162499845027696 -7.2890615231637526 17.693749845027696 -14.062499523163751 17.693749845027696 -21.99999952316375C17.693749845027696 -29.925780523163752 19.162499845027696 -36.70312452316375 22.099999845027696 -42.32812452316375C25.045311845027697 -47.95312452316375 29.185937845027695 -52.21093752316375 34.521874845027696 -55.10937452316375C39.865624845027696 -58.00390552316375 46.068749845027696 -59.45312452316375 53.131249845027696 -59.45312452316375C60.193749845027696 -59.45312452316375 66.3890618450277 -58.00390552316375 71.7249998450277 -55.10937452316375C77.0687498450277 -52.21093752316375 81.2249998450277 -47.95312452316375 84.1937498450277 -42.32812452316375C87.1624998450277 -36.70312452316375 88.6468748450277 -29.925780523163752 88.6468748450277 -21.99999952316375C88.6468748450277 -14.062499523163751 87.1624998450277 -7.2890615231637526 84.1937498450277 -1.6874995231637513C81.2249998450277 3.9062504768362487 77.0687498450277 8.156250476836249 71.7249998450277 11.062500476836249C66.3890618450277 13.960937976836249 60.193749845027696 15.406250476836249 53.131249845027696 15.406250476836249ZM53.131249845027696 0.04687547683624871C64.3382808450277 0.04687547683624871 69.9437498450277 -7.300780523163752 69.9437498450277 -21.99999952316375C69.9437498450277 -29.62499952316375 68.4984378450277 -35.21093752316375 65.6156248450277 -38.76562452316375C62.740624845027696 -42.31640552316375 58.5765618450277 -44.09374952316375 53.131249845027696 -44.09374952316375C41.9320308450277 -44.09374952316375 36.334374845027696 -36.72656152316375 36.334374845027696 -21.99999952316375C36.334374845027696 -7.300780523163752 41.9320308450277 0.04687547683624871 53.131249845027696 0.04687547683624871ZM53.131249845027696 0.04687547683624871 "></path></g></g></g><g fill="#000000" fill-opacity="1"><g transform="translate(800.234739, 250.652595)"><g><path d="M 33.734375 1.375 C 28.804688 1.375 24.296875 0.796875 20.203125 -0.359375 C 16.109375 -1.515625 12.609375 -3.101562 9.703125 -5.125 C 6.804688 -7.15625 4.660156 -9.476562 3.265625 -12.09375 L 13.34375 -22.953125 L 14.71875 -22.953125 C 17.113281 -19.722656 19.941406 -17.300781 23.203125 -15.6875 C 26.472656 -14.070312 30.03125 -13.265625 33.875 -13.265625 C 37.40625 -13.265625 40.0625 -13.894531 41.84375 -15.15625 C 43.632812 -16.425781 44.53125 -18.238281 44.53125 -20.59375 C 44.53125 -22.425781 43.882812 -23.960938 42.59375 -25.203125 C 41.3125 -26.441406 39.234375 -27.410156 36.359375 -28.109375 L 26.8125 -30.40625 C 19.65625 -32.101562 14.429688 -34.707031 11.140625 -38.21875 C 7.859375 -41.726562 6.21875 -46.1875 6.21875 -51.59375 C 6.21875 -56.082031 7.359375 -59.984375 9.640625 -63.296875 C 11.929688 -66.609375 15.15625 -69.132812 19.3125 -70.875 C 23.476562 -72.613281 28.332031 -73.484375 33.875 -73.484375 C 40.363281 -73.484375 45.742188 -72.546875 50.015625 -70.671875 C 54.285156 -68.804688 57.617188 -66.300781 60.015625 -63.15625 L 50.34375 -52.703125 L 49.03125 -52.703125 C 47.03125 -54.960938 44.773438 -56.613281 42.265625 -57.65625 C 39.765625 -58.707031 36.96875 -59.234375 33.875 -59.234375 C 26.71875 -59.234375 23.140625 -57.007812 23.140625 -52.5625 C 23.140625 -50.6875 23.804688 -49.160156 25.140625 -47.984375 C 26.472656 -46.804688 28.816406 -45.847656 32.171875 -45.109375 L 41.0625 -43.15625 C 48.382812 -41.582031 53.734375 -39.0625 57.109375 -35.59375 C 60.492188 -32.132812 62.1875 -27.484375 62.1875 -21.640625 C 62.1875 -17.066406 61.050781 -13.035156 58.78125 -9.546875 C 56.507812 -6.054688 53.238281 -3.363281 48.96875 -1.46875 C 44.695312 0.425781 39.617188 1.375 33.734375 1.375 Z M 33.734375 1.375 "></path></g></g></g><g fill="#000000" fill-opacity="1"><g transform="translate(866.730937, 250.652595)"><g><path d="M 49.75 -17.203125 L 54.46875 -3.796875 C 52.5 -2.179688 50.03125 -0.914062 47.0625 0 C 44.101562 0.914062 40.75 1.375 37 1.375 C 29.195312 1.375 23.269531 -0.75 19.21875 -5 C 15.164062 -9.25 13.140625 -15.425781 13.140625 -23.53125 L 13.140625 -57.796875 L 2.15625 -57.796875 L 2.15625 -72.1875 L 13.140625 -72.1875 L 13.140625 -86.234375 L 31.25 -89.1875 L 31.25 -72.1875 L 51.71875 -72.1875 L 51.71875 -57.796875 L 31.25 -57.796875 L 31.25 -24.84375 C 31.25 -21.269531 31.988281 -18.664062 33.46875 -17.03125 C 34.957031 -15.394531 37.117188 -14.578125 39.953125 -14.578125 C 43.171875 -14.578125 45.984375 -15.453125 48.390625 -17.203125 Z M 49.75 -17.203125 "></path></g></g></g><g fill="#000000" fill-opacity="1"><g transform="translate(922.765588, 250.652595)"><g><path d="M 71.265625 -31.96875 L 24.90625 -31.96875 C 25.4375 -25.695312 27.222656 -21.128906 30.265625 -18.265625 C 33.316406 -15.410156 37.484375 -13.984375 42.765625 -13.984375 C 46.898438 -13.984375 50.253906 -14.757812 52.828125 -16.3125 C 55.398438 -17.863281 57.472656 -20.207031 59.046875 -23.34375 L 60.421875 -23.34375 L 72.453125 -15.625 C 70.097656 -10.570312 66.539062 -6.472656 61.78125 -3.328125 C 57.03125 -0.191406 50.691406 1.375 42.765625 1.375 C 35.304688 1.375 28.863281 -0.0390625 23.4375 -2.875 C 18.007812 -5.707031 13.820312 -9.925781 10.875 -15.53125 C 7.9375 -21.132812 6.46875 -27.96875 6.46875 -36.03125 C 6.46875 -44.21875 8.015625 -51.125 11.109375 -56.75 C 14.203125 -62.375 18.382812 -66.566406 23.65625 -69.328125 C 28.9375 -72.097656 34.867188 -73.484375 41.453125 -73.484375 C 51.648438 -73.484375 59.460938 -70.78125 64.890625 -65.375 C 70.316406 -59.976562 73.03125 -52.046875 73.03125 -41.578125 C 73.03125 -37.785156 72.898438 -34.84375 72.640625 -32.75 Z M 55.703125 -43.671875 C 55.535156 -49.171875 54.257812 -53.171875 51.875 -55.671875 C 49.5 -58.179688 46.023438 -59.4375 41.453125 -59.4375 C 32.296875 -59.4375 26.910156 -54.179688 25.296875 -43.671875 Z M 55.703125 -43.671875 "></path></g></g></g><g fill="#000000" fill-opacity="1"><g transform="translate(1001.161773, 250.652595)"><g><path d="M 10.390625 0 L 10.390625 -72.125 L 27.984375 -72.125 L 27.984375 -61.390625 L 29.359375 -61.140625 C 31.097656 -65.148438 33.382812 -68.085938 36.21875 -69.953125 C 39.050781 -71.828125 42.492188 -72.765625 46.546875 -72.765625 C 50.648438 -72.765625 53.769531 -72.070312 55.90625 -70.6875 L 52.828125 -55.046875 L 51.453125 -54.796875 C 50.273438 -55.273438 49.140625 -55.625 48.046875 -55.84375 C 46.960938 -56.0625 45.632812 -56.171875 44.0625 -56.171875 C 39.007812 -56.171875 35.148438 -54.390625 32.484375 -50.828125 C 29.828125 -47.273438 28.5 -41.578125 28.5 -33.734375 L 28.5 0 Z M 10.390625 0 "></path></g></g></g><g fill="#000000" fill-opacity="1"><g transform="translate(429.152037, 627.524933)"><g><path d="M 28.734375 0.78125 C 21.273438 0.78125 15.738281 -0.988281 12.125 -4.53125 C 8.519531 -8.082031 6.71875 -13.347656 6.71875 -20.328125 L 6.71875 -54.21875 L 17.203125 -54.21875 L 17.203125 -20.390625 C 17.203125 -16.441406 18.15625 -13.476562 20.0625 -11.5 C 21.96875 -9.519531 24.859375 -8.53125 28.734375 -8.53125 C 36.429688 -8.53125 40.28125 -12.484375 40.28125 -20.390625 L 40.28125 -54.21875 L 50.765625 -54.21875 L 50.765625 -20.328125 C 50.765625 -13.347656 48.957031 -8.082031 45.34375 -4.53125 C 41.738281 -0.988281 36.203125 0.78125 28.734375 0.78125 Z M 28.734375 0.78125 "></path></g></g></g><g fill="#000000" fill-opacity="1"><g transform="translate(486.63239, 627.524933)"><g><path d="M 28.15625 0 L 15.90625 0 L 0.78125 -40.90625 L 11.53125 -40.90625 L 21.703125 -11.75 L 22.546875 -11.75 L 32.75 -40.90625 L 43.25 -40.90625 Z M 28.15625 0 "></path></g></g></g><g fill="#000000" fill-opacity="1"><g transform="translate(530.614131, 627.524933)"><g><path d="M 40.421875 -18.140625 L 14.125 -18.140625 C 14.425781 -14.578125 15.441406 -11.984375 17.171875 -10.359375 C 18.898438 -8.742188 21.257812 -7.9375 24.25 -7.9375 C 26.601562 -7.9375 28.507812 -8.375 29.96875 -9.25 C 31.425781 -10.125 32.597656 -11.453125 33.484375 -13.234375 L 34.265625 -13.234375 L 41.09375 -8.859375 C 39.757812 -5.992188 37.742188 -3.671875 35.046875 -1.890625 C 32.347656 -0.109375 28.75 0.78125 24.25 0.78125 C 20.019531 0.78125 16.363281 -0.0195312 13.28125 -1.625 C 10.207031 -3.238281 7.835938 -5.632812 6.171875 -8.8125 C 4.503906 -11.988281 3.671875 -15.863281 3.671875 -20.4375 C 3.671875 -25.082031 4.546875 -29 6.296875 -32.1875 C 8.054688 -35.375 10.429688 -37.753906 13.421875 -39.328125 C 16.410156 -40.898438 19.773438 -41.6875 23.515625 -41.6875 C 29.296875 -41.6875 33.722656 -40.148438 36.796875 -37.078125 C 39.878906 -34.015625 41.421875 -29.519531 41.421875 -23.59375 C 41.421875 -21.4375 41.347656 -19.765625 41.203125 -18.578125 Z M 31.59375 -24.78125 C 31.5 -27.894531 30.773438 -30.160156 29.421875 -31.578125 C 28.078125 -33.003906 26.109375 -33.71875 23.515625 -33.71875 C 18.316406 -33.71875 15.265625 -30.738281 14.359375 -24.78125 Z M 31.59375 -24.78125 "></path></g></g></g><g fill="#000000" fill-opacity="1"><g transform="translate(575.077971, 627.524933)"><g><path d="M 16.984375 0.78125 C 13.296875 0.78125 10.484375 -0.210938 8.546875 -2.203125 C 6.609375 -4.191406 5.640625 -7.21875 5.640625 -11.28125 L 5.640625 -57.328125 L 15.90625 -57.328125 L 15.90625 -11.6875 C 15.90625 -9.1875 16.945312 -7.9375 19.03125 -7.9375 C 19.625 -7.9375 20.253906 -8.035156 20.921875 -8.234375 L 21.4375 -8.078125 L 22.359375 -0.1875 C 21.796875 0.113281 21.039062 0.347656 20.09375 0.515625 C 19.15625 0.691406 18.117188 0.78125 16.984375 0.78125 Z M 16.984375 0.78125 "></path></g></g></g><g fill="#000000" fill-opacity="1"><g transform="translate(598.589289, 627.524933)"><g><path d="M 15.953125 0.78125 C 13.328125 0.78125 11.050781 0.300781 9.125 -0.65625 C 7.195312 -1.625 5.710938 -3.039062 4.671875 -4.90625 C 3.628906 -6.78125 3.109375 -9.023438 3.109375 -11.640625 C 3.109375 -14.066406 3.628906 -16.101562 4.671875 -17.75 C 5.710938 -19.394531 7.316406 -20.738281 9.484375 -21.78125 C 11.660156 -22.832031 14.507812 -23.644531 18.03125 -24.21875 C 20.476562 -24.613281 22.335938 -25.046875 23.609375 -25.515625 C 24.878906 -25.984375 25.734375 -26.515625 26.171875 -27.109375 C 26.617188 -27.703125 26.84375 -28.457031 26.84375 -29.375 C 26.84375 -30.6875 26.382812 -31.6875 25.46875 -32.375 C 24.5625 -33.070312 23.046875 -33.421875 20.921875 -33.421875 C 18.640625 -33.421875 16.472656 -32.910156 14.421875 -31.890625 C 12.367188 -30.878906 10.59375 -29.546875 9.09375 -27.890625 L 8.34375 -27.890625 L 4.046875 -34.375 C 6.117188 -36.675781 8.648438 -38.46875 11.640625 -39.75 C 14.628906 -41.039062 17.894531 -41.6875 21.4375 -41.6875 C 26.851562 -41.6875 30.769531 -40.535156 33.1875 -38.234375 C 35.613281 -35.929688 36.828125 -32.671875 36.828125 -28.453125 L 36.828125 -10.6875 C 36.828125 -8.851562 37.628906 -7.9375 39.234375 -7.9375 C 39.859375 -7.9375 40.46875 -8.046875 41.0625 -8.265625 L 41.578125 -8.125 L 42.3125 -0.96875 C 41.75 -0.59375 40.957031 -0.285156 39.9375 -0.046875 C 38.925781 0.179688 37.816406 0.296875 36.609375 0.296875 C 34.160156 0.296875 32.25 -0.171875 30.875 -1.109375 C 29.5 -2.046875 28.515625 -3.519531 27.921875 -5.53125 L 27.140625 -5.59375 C 25.140625 -1.34375 21.410156 0.78125 15.953125 0.78125 Z M 19.203125 -6.890625 C 21.578125 -6.890625 23.472656 -7.6875 24.890625 -9.28125 C 26.316406 -10.882812 27.03125 -13.109375 27.03125 -15.953125 L 27.03125 -20.09375 L 26.328125 -20.25 C 25.710938 -19.75 24.90625 -19.332031 23.90625 -19 C 22.90625 -18.664062 21.460938 -18.34375 19.578125 -18.03125 C 17.359375 -17.65625 15.757812 -17.015625 14.78125 -16.109375 C 13.800781 -15.210938 13.3125 -13.9375 13.3125 -12.28125 C 13.3125 -10.519531 13.828125 -9.179688 14.859375 -8.265625 C 15.898438 -7.347656 17.347656 -6.890625 19.203125 -6.890625 Z M 19.203125 -6.890625 "></path></g></g></g><g fill="#000000" fill-opacity="1"><g transform="translate(641.718113, 627.524933)"><g><path d="M 5.890625 16.578125 L 5.890625 -40.90625 L 16.171875 -40.90625 L 16.171875 -35.5625 L 16.953125 -35.421875 C 18.160156 -37.492188 19.773438 -39.054688 21.796875 -40.109375 C 23.828125 -41.160156 26.203125 -41.6875 28.921875 -41.6875 C 32.210938 -41.6875 35.085938 -40.90625 37.546875 -39.34375 C 40.003906 -37.789062 41.921875 -35.425781 43.296875 -32.25 C 44.671875 -29.070312 45.359375 -25.132812 45.359375 -20.4375 C 45.359375 -15.757812 44.632812 -11.835938 43.1875 -8.671875 C 41.738281 -5.515625 39.726562 -3.148438 37.15625 -1.578125 C 34.582031 -0.00390625 31.617188 0.78125 28.265625 0.78125 C 25.710938 0.78125 23.507812 0.351562 21.65625 -0.5 C 19.800781 -1.351562 18.234375 -2.679688 16.953125 -4.484375 L 16.171875 -4.34375 L 16.171875 16.578125 Z M 25.40625 -7.9375 C 28.46875 -7.9375 30.789062 -8.9375 32.375 -10.9375 C 33.957031 -12.9375 34.75 -16.101562 34.75 -20.4375 C 34.75 -24.757812 33.957031 -27.925781 32.375 -29.9375 C 30.789062 -31.957031 28.46875 -32.96875 25.40625 -32.96875 C 22.539062 -32.96875 20.265625 -31.925781 18.578125 -29.84375 C 16.898438 -27.769531 16.0625 -24.632812 16.0625 -20.4375 C 16.0625 -16.257812 16.898438 -13.128906 18.578125 -11.046875 C 20.265625 -8.972656 22.539062 -7.9375 25.40625 -7.9375 Z M 25.40625 -7.9375 "></path></g></g></g><g fill="#000000" fill-opacity="1"><g transform="translate(690.706225, 627.524933)"><g><path d="M 5.890625 0 L 5.890625 -57.328125 L 16.171875 -57.328125 L 16.171875 -35.5625 L 16.953125 -35.421875 C 18.304688 -37.421875 19.972656 -38.960938 21.953125 -40.046875 C 23.929688 -41.140625 26.316406 -41.6875 29.109375 -41.6875 C 38.140625 -41.6875 42.65625 -36.566406 42.65625 -26.328125 L 42.65625 0 L 32.375 0 L 32.375 -25.03125 C 32.375 -27.820312 31.816406 -29.847656 30.703125 -31.109375 C 29.585938 -32.367188 27.859375 -33 25.515625 -33 C 22.648438 -33 20.375 -32.039062 18.6875 -30.125 C 17.007812 -28.21875 16.171875 -25.234375 16.171875 -21.171875 L 16.171875 0 Z M 5.890625 0 "></path></g></g></g><g fill="#000000" fill-opacity="1"><g transform="translate(738.618881, 627.524933)"><g><path d="M 11.015625 -45.796875 C 9.160156 -45.796875 7.648438 -46.359375 6.484375 -47.484375 C 5.328125 -48.609375 4.75 -50.0625 4.75 -51.84375 C 4.75 -53.601562 5.328125 -55.046875 6.484375 -56.171875 C 7.648438 -57.296875 9.160156 -57.859375 11.015625 -57.859375 C 12.253906 -57.859375 13.351562 -57.597656 14.3125 -57.078125 C 15.28125 -56.554688 16.03125 -55.84375 16.5625 -54.9375 C 17.09375 -54.039062 17.359375 -53.007812 17.359375 -51.84375 C 17.359375 -50.6875 17.09375 -49.648438 16.5625 -48.734375 C 16.03125 -47.816406 15.28125 -47.097656 14.3125 -46.578125 C 13.351562 -46.054688 12.253906 -45.796875 11.015625 -45.796875 Z M 5.890625 0 L 5.890625 -40.90625 L 16.171875 -40.90625 L 16.171875 0 Z M 5.890625 0 "></path></g></g></g><g fill="#000000" fill-opacity="1"><g transform="translate(397.093291, 966.321396)"><g><path d="M 5.390625 0 L 5.390625 -35.671875 L 9.59375 -35.671875 L 9.59375 -20.078125 L 10.34375 -20.078125 L 24.984375 -35.671875 L 29.578125 -35.671875 L 29.578125 -35.0625 L 14.125 -18.390625 L 30.796875 -0.609375 L 30.796875 0 L 25.984375 0 L 10.34375 -16.421875 L 9.59375 -16.421875 L 9.59375 0 Z M 5.390625 0 "></path></g></g></g><g fill="#000000" fill-opacity="1"><g transform="translate(428.56268, 966.321396)"><g><path d="M 4.6875 0 L 4.6875 -26.90625 L 8.46875 -26.90625 L 8.46875 -22.6875 L 8.984375 -22.5625 C 9.878906 -24.144531 11.019531 -25.347656 12.40625 -26.171875 C 13.800781 -27.003906 15.5 -27.421875 17.5 -27.421875 C 20.726562 -27.421875 23.070312 -26.59375 24.53125 -24.9375 C 25.988281 -23.289062 26.71875 -20.753906 26.71875 -17.328125 L 26.71875 0 L 22.734375 0 L 22.734375 -17.21875 C 22.734375 -18.851562 22.523438 -20.160156 22.109375 -21.140625 C 21.703125 -22.128906 21.0625 -22.84375 20.1875 -23.28125 C 19.320312 -23.726562 18.179688 -23.953125 16.765625 -23.953125 C 14.335938 -23.953125 12.378906 -23.148438 10.890625 -21.546875 C 9.398438 -19.953125 8.65625 -17.375 8.65625 -13.8125 L 8.65625 0 Z M 4.6875 0 "></path></g></g></g><g fill="#000000" fill-opacity="1"><g transform="translate(459.544171, 966.321396)"><g><path d="M 15.4375 0.515625 C 12.90625 0.515625 10.695312 -0.0195312 8.8125 -1.09375 C 6.9375 -2.164062 5.488281 -3.75 4.46875 -5.84375 C 3.457031 -7.9375 2.953125 -10.46875 2.953125 -13.4375 C 2.953125 -16.414062 3.457031 -18.953125 4.46875 -21.046875 C 5.488281 -23.148438 6.9375 -24.738281 8.8125 -25.8125 C 10.695312 -26.882812 12.90625 -27.421875 15.4375 -27.421875 C 17.976562 -27.421875 20.1875 -26.882812 22.0625 -25.8125 C 23.945312 -24.738281 25.394531 -23.148438 26.40625 -21.046875 C 27.425781 -18.953125 27.9375 -16.414062 27.9375 -13.4375 C 27.9375 -10.46875 27.425781 -7.9375 26.40625 -5.84375 C 25.394531 -3.75 23.945312 -2.164062 22.0625 -1.09375 C 20.1875 -0.0195312 17.976562 0.515625 15.4375 0.515625 Z M 15.4375 -3.046875 C 18.125 -3.046875 20.175781 -3.890625 21.59375 -5.578125 C 23.019531 -7.273438 23.734375 -9.894531 23.734375 -13.4375 C 23.734375 -17 23.019531 -19.625 21.59375 -21.3125 C 20.175781 -23.007812 18.125 -23.859375 15.4375 -23.859375 C 12.757812 -23.859375 10.703125 -23.007812 9.265625 -21.3125 C 7.835938 -19.613281 7.125 -16.988281 7.125 -13.4375 C 7.125 -9.894531 7.835938 -7.273438 9.265625 -5.578125 C 10.703125 -3.890625 12.757812 -3.046875 15.4375 -3.046875 Z M 15.4375 -3.046875 "></path></g></g></g><g fill="#000000" fill-opacity="1"><g transform="translate(490.428083, 966.321396)"><g><path d="M 13.34375 0 L 8.3125 0 L 1.734375 -26.90625 L 5.65625 -26.90625 L 10.765625 -4.640625 L 11.265625 -4.640625 L 17.546875 -26.90625 L 21.71875 -26.90625 L 28.1875 -4.640625 L 28.6875 -4.640625 L 33.6875 -26.90625 L 37.5 -26.90625 L 30.984375 0 L 25.9375 0 L 19.78125 -20.890625 L 19.28125 -20.890625 Z M 13.34375 0 "></path></g></g></g><g fill="#000000" fill-opacity="1"><g transform="translate(529.655042, 966.321396)"><g></g></g></g><g fill="#000000" fill-opacity="1"><g transform="translate(541.901269, 966.321396)"><g><path d="M 5.390625 11.421875 C 4.484375 11.421875 3.632812 11.34375 2.84375 11.1875 C 2.050781 11.03125 1.375 10.816406 0.8125 10.546875 L 1.53125 7.390625 L 1.96875 7.25 C 2.363281 7.445312 2.851562 7.613281 3.4375 7.75 C 4.019531 7.882812 4.625 7.953125 5.25 7.953125 C 6.332031 7.953125 7.234375 7.804688 7.953125 7.515625 C 8.671875 7.222656 9.285156 6.738281 9.796875 6.0625 C 10.304688 5.382812 10.78125 4.453125 11.21875 3.265625 L 12.171875 0.640625 L 1.359375 -26.90625 L 5.65625 -26.90625 L 14.125 -4.953125 L 14.59375 -4.953125 L 22.78125 -26.90625 L 26.859375 -26.90625 L 14.828125 4.21875 C 14.148438 5.945312 13.382812 7.332031 12.53125 8.375 C 11.6875 9.425781 10.6875 10.195312 9.53125 10.6875 C 8.382812 11.175781 7.003906 11.421875 5.390625 11.421875 Z M 5.390625 11.421875 "></path></g></g></g><g fill="#000000" fill-opacity="1"><g transform="translate(570.272509, 966.321396)"><g><path d="M 15.4375 0.515625 C 12.90625 0.515625 10.695312 -0.0195312 8.8125 -1.09375 C 6.9375 -2.164062 5.488281 -3.75 4.46875 -5.84375 C 3.457031 -7.9375 2.953125 -10.46875 2.953125 -13.4375 C 2.953125 -16.414062 3.457031 -18.953125 4.46875 -21.046875 C 5.488281 -23.148438 6.9375 -24.738281 8.8125 -25.8125 C 10.695312 -26.882812 12.90625 -27.421875 15.4375 -27.421875 C 17.976562 -27.421875 20.1875 -26.882812 22.0625 -25.8125 C 23.945312 -24.738281 25.394531 -23.148438 26.40625 -21.046875 C 27.425781 -18.953125 27.9375 -16.414062 27.9375 -13.4375 C 27.9375 -10.46875 27.425781 -7.9375 26.40625 -5.84375 C 25.394531 -3.75 23.945312 -2.164062 22.0625 -1.09375 C 20.1875 -0.0195312 17.976562 0.515625 15.4375 0.515625 Z M 15.4375 -3.046875 C 18.125 -3.046875 20.175781 -3.890625 21.59375 -5.578125 C 23.019531 -7.273438 23.734375 -9.894531 23.734375 -13.4375 C 23.734375 -17 23.019531 -19.625 21.59375 -21.3125 C 20.175781 -23.007812 18.125 -23.859375 15.4375 -23.859375 C 12.757812 -23.859375 10.703125 -23.007812 9.265625 -21.3125 C 7.835938 -19.613281 7.125 -16.988281 7.125 -13.4375 C 7.125 -9.894531 7.835938 -7.273438 9.265625 -5.578125 C 10.703125 -3.890625 12.757812 -3.046875 15.4375 -3.046875 Z M 15.4375 -3.046875 "></path></g></g></g><g fill="#000000" fill-opacity="1"><g transform="translate(601.15641, 966.321396)"><g><path d="M 13.296875 0.515625 C 10.253906 0.515625 7.988281 -0.285156 6.5 -1.890625 C 5.007812 -3.503906 4.265625 -5.867188 4.265625 -8.984375 L 4.265625 -26.90625 L 8.25 -26.90625 L 8.25 -9.078125 C 8.25 -4.992188 10.164062 -2.953125 14 -2.953125 C 16.445312 -2.953125 18.375 -3.75 19.78125 -5.34375 C 21.195312 -6.9375 21.90625 -9.523438 21.90625 -13.109375 L 21.90625 -26.90625 L 25.890625 -26.90625 L 25.890625 0 L 22.125 0 L 22.125 -4.21875 L 21.625 -4.34375 C 20.695312 -2.695312 19.582031 -1.472656 18.28125 -0.671875 C 16.988281 0.117188 15.328125 0.515625 13.296875 0.515625 Z M 13.296875 0.515625 "></path></g></g></g><g fill="#000000" fill-opacity="1"><g transform="translate(631.723177, 966.321396)"><g><path d="M 4.6875 0 L 4.6875 -26.90625 L 8.46875 -26.90625 L 8.46875 -22.6875 L 8.984375 -22.5625 C 10.234375 -25.625 12.585938 -27.15625 16.046875 -27.15625 C 17.890625 -27.15625 19.265625 -26.820312 20.171875 -26.15625 L 19.15625 -22.78125 L 18.671875 -22.6875 C 17.660156 -23.195312 16.550781 -23.453125 15.34375 -23.453125 C 13.195312 -23.453125 11.546875 -22.644531 10.390625 -21.03125 C 9.234375 -19.414062 8.65625 -16.804688 8.65625 -13.203125 L 8.65625 0 Z M 4.6875 0 "></path></g></g></g><g fill="#000000" fill-opacity="1"><g transform="translate(652.507611, 966.321396)"><g></g></g></g><g fill="#000000" fill-opacity="1"><g transform="translate(664.753838, 966.321396)"><g><path d="M 4.6875 0 L 4.6875 -26.90625 L 8.46875 -26.90625 L 8.46875 -22.6875 L 8.984375 -22.5625 C 10.234375 -25.625 12.585938 -27.15625 16.046875 -27.15625 C 17.890625 -27.15625 19.265625 -26.820312 20.171875 -26.15625 L 19.15625 -22.78125 L 18.671875 -22.6875 C 17.660156 -23.195312 16.550781 -23.453125 15.34375 -23.453125 C 13.195312 -23.453125 11.546875 -22.644531 10.390625 -21.03125 C 9.234375 -19.414062 8.65625 -16.804688 8.65625 -13.203125 L 8.65625 0 Z M 4.6875 0 "></path></g></g></g><g fill="#000000" fill-opacity="1"><g transform="translate(685.538272, 966.321396)"><g><path d="M 15.4375 0.515625 C 12.90625 0.515625 10.695312 -0.0195312 8.8125 -1.09375 C 6.9375 -2.164062 5.488281 -3.75 4.46875 -5.84375 C 3.457031 -7.9375 2.953125 -10.46875 2.953125 -13.4375 C 2.953125 -16.414062 3.457031 -18.953125 4.46875 -21.046875 C 5.488281 -23.148438 6.9375 -24.738281 8.8125 -25.8125 C 10.695312 -26.882812 12.90625 -27.421875 15.4375 -27.421875 C 17.976562 -27.421875 20.1875 -26.882812 22.0625 -25.8125 C 23.945312 -24.738281 25.394531 -23.148438 26.40625 -21.046875 C 27.425781 -18.953125 27.9375 -16.414062 27.9375 -13.4375 C 27.9375 -10.46875 27.425781 -7.9375 26.40625 -5.84375 C 25.394531 -3.75 23.945312 -2.164062 22.0625 -1.09375 C 20.1875 -0.0195312 17.976562 0.515625 15.4375 0.515625 Z M 15.4375 -3.046875 C 18.125 -3.046875 20.175781 -3.890625 21.59375 -5.578125 C 23.019531 -7.273438 23.734375 -9.894531 23.734375 -13.4375 C 23.734375 -17 23.019531 -19.625 21.59375 -21.3125 C 20.175781 -23.007812 18.125 -23.859375 15.4375 -23.859375 C 12.757812 -23.859375 10.703125 -23.007812 9.265625 -21.3125 C 7.835938 -19.613281 7.125 -16.988281 7.125 -13.4375 C 7.125 -9.894531 7.835938 -7.273438 9.265625 -5.578125 C 10.703125 -3.890625 12.757812 -3.046875 15.4375 -3.046875 Z M 15.4375 -3.046875 "></path></g></g></g><g fill="#000000" fill-opacity="1"><g transform="translate(716.422183, 966.321396)"><g><path d="M 15.4375 0.515625 C 12.90625 0.515625 10.695312 -0.0195312 8.8125 -1.09375 C 6.9375 -2.164062 5.488281 -3.75 4.46875 -5.84375 C 3.457031 -7.9375 2.953125 -10.46875 2.953125 -13.4375 C 2.953125 -16.414062 3.457031 -18.953125 4.46875 -21.046875 C 5.488281 -23.148438 6.9375 -24.738281 8.8125 -25.8125 C 10.695312 -26.882812 12.90625 -27.421875 15.4375 -27.421875 C 17.976562 -27.421875 20.1875 -26.882812 22.0625 -25.8125 C 23.945312 -24.738281 25.394531 -23.148438 26.40625 -21.046875 C 27.425781 -18.953125 27.9375 -16.414062 27.9375 -13.4375 C 27.9375 -10.46875 27.425781 -7.9375 26.40625 -5.84375 C 25.394531 -3.75 23.945312 -2.164062 22.0625 -1.09375 C 20.1875 -0.0195312 17.976562 0.515625 15.4375 0.515625 Z M 15.4375 -3.046875 C 18.125 -3.046875 20.175781 -3.890625 21.59375 -5.578125 C 23.019531 -7.273438 23.734375 -9.894531 23.734375 -13.4375 C 23.734375 -17 23.019531 -19.625 21.59375 -21.3125 C 20.175781 -23.007812 18.125 -23.859375 15.4375 -23.859375 C 12.757812 -23.859375 10.703125 -23.007812 9.265625 -21.3125 C 7.835938 -19.613281 7.125 -16.988281 7.125 -13.4375 C 7.125 -9.894531 7.835938 -7.273438 9.265625 -5.578125 C 10.703125 -3.890625 12.757812 -3.046875 15.4375 -3.046875 Z M 15.4375 -3.046875 "></path></g></g></g><g fill="#000000" fill-opacity="1"><g transform="translate(747.306095, 966.321396)"><g><path d="M 18.203125 -4.265625 L 19.46875 -1.421875 C 18.832031 -0.785156 18 -0.304688 16.96875 0.015625 C 15.9375 0.347656 14.816406 0.515625 13.609375 0.515625 C 8.472656 0.515625 5.90625 -2.085938 5.90625 -7.296875 L 5.90625 -23.671875 L 1.21875 -23.671875 L 1.21875 -26.9375 L 5.90625 -26.9375 L 5.90625 -32.625 L 9.875 -33.28125 L 9.875 -26.9375 L 18.546875 -26.9375 L 18.546875 -23.671875 L 9.875 -23.671875 L 9.875 -7.6875 C 9.875 -4.59375 11.21875 -3.046875 13.90625 -3.046875 C 15.375 -3.046875 16.632812 -3.453125 17.6875 -4.265625 Z M 18.203125 -4.265625 "></path></g></g></g><g fill="#000000" fill-opacity="1"><g transform="translate(767.797791, 966.321396)"><g><path d="M 12.265625 0.515625 C 10.578125 0.515625 9.015625 0.289062 7.578125 -0.15625 C 6.140625 -0.601562 4.921875 -1.21875 3.921875 -2 C 2.929688 -2.78125 2.234375 -3.660156 1.828125 -4.640625 L 4.171875 -7.078125 L 4.6875 -7.078125 C 5.5625 -5.742188 6.613281 -4.738281 7.84375 -4.0625 C 9.082031 -3.382812 10.554688 -3.046875 12.265625 -3.046875 C 14.253906 -3.046875 15.765625 -3.429688 16.796875 -4.203125 C 17.828125 -4.984375 18.34375 -6.0625 18.34375 -7.4375 C 18.34375 -8.5 18.03125 -9.375 17.40625 -10.0625 C 16.78125 -10.75 15.769531 -11.265625 14.375 -11.609375 L 9.828125 -12.734375 C 7.410156 -13.316406 5.644531 -14.242188 4.53125 -15.515625 C 3.414062 -16.785156 2.859375 -18.359375 2.859375 -20.234375 C 2.859375 -21.691406 3.226562 -22.960938 3.96875 -24.046875 C 4.71875 -25.128906 5.796875 -25.960938 7.203125 -26.546875 C 8.617188 -27.128906 10.289062 -27.421875 12.21875 -27.421875 C 14.695312 -27.421875 16.644531 -27.070312 18.0625 -26.375 C 19.488281 -25.6875 20.597656 -24.726562 21.390625 -23.5 L 19.15625 -21.296875 L 18.671875 -21.296875 C 17.804688 -22.285156 16.863281 -23 15.84375 -23.4375 C 14.832031 -23.882812 13.625 -24.109375 12.21875 -24.109375 C 10.445312 -24.109375 9.085938 -23.789062 8.140625 -23.15625 C 7.203125 -22.519531 6.734375 -21.597656 6.734375 -20.390625 C 6.734375 -19.304688 7.066406 -18.429688 7.734375 -17.765625 C 8.398438 -17.097656 9.5625 -16.5625 11.21875 -16.15625 L 15.6875 -15.078125 C 18.03125 -14.523438 19.722656 -13.601562 20.765625 -12.3125 C 21.804688 -11.03125 22.328125 -9.421875 22.328125 -7.484375 C 22.328125 -5.910156 21.953125 -4.519531 21.203125 -3.3125 C 20.453125 -2.113281 19.320312 -1.175781 17.8125 -0.5 C 16.300781 0.175781 14.453125 0.515625 12.265625 0.515625 Z M 12.265625 0.515625 "></path></g></g></g></svg>